<svg width="174" height="30" viewBox="0 0 174 30" fill="none" xmlns="http://www.w3.org/2000/svg">
<path d="M0.352051 4.41431H2.06308V14.5175H13.4709V4.41431H15.182V25.544H13.4709V16.134H2.06384V25.544H0.352051V4.41431Z" fill="#1E2C5B"/>
<path d="M19.7349 8.16707C19.7349 5.33722 21.5362 4.32771 23.5166 4.41454L32.7941 4.81775V6.05903H23.5173C21.8362 6.05903 21.4467 6.92506 21.4467 8.16707V14.1991L31.5934 14.4301V15.7008L21.4467 15.9311V21.9933C21.4467 23.8983 22.6771 23.9851 23.8181 23.9851H32.7948V25.197L23.8181 25.6303C21.8362 25.7164 19.7356 25.2551 19.7356 21.9933V8.16707H19.7349Z" fill="#1E2C5B"/>
<path d="M36.9186 4.41479H38.6288V21.9082C38.6288 23.8132 39.8601 23.8993 41.001 23.8993H49.8569V25.5445H41.0018C39.0199 25.5445 36.9193 25.1693 36.9193 21.9082L36.9186 4.41479Z" fill="#1E2C5B"/>
<path d="M52.9479 4.41479H61.7448C64.1162 4.41479 66.9988 5.25139 66.9988 10.4188C66.9988 16.3942 63.9662 16.7106 61.7448 16.7106C60.5442 16.7106 54.8097 16.3074 54.6597 16.2206V25.5445H52.9486L52.9479 4.41479ZM61.7448 15.0381C63.576 15.0381 65.287 14.5179 65.2572 10.4188C65.2273 6.40585 63.2163 6.08872 61.7448 6.08872H54.6589V15.0381H61.7448Z" fill="#1E2C5B"/>
<path d="M71.1196 4.41455H72.8307V25.5443H71.1196V4.41455Z" fill="#036EE9"/>
<path d="M77.3931 4.41455H79.1347L91.3537 22.4554V4.41455H93.0647V25.5443H91.3537L79.1049 7.50266V25.5443H77.3931V4.41455Z" fill="#036EE9"/>
<path d="M128.259 3.58472C133.452 3.58472 136.603 4.53757 136.603 14.4369C136.603 23.7594 133.662 24.9712 128.259 24.9712C122.856 24.9712 119.915 24.0478 119.915 14.4369C119.915 4.53757 123.187 3.58472 128.259 3.58472ZM128.259 23.3267C133.092 23.3267 134.893 22.0854 134.893 14.4369C134.893 5.57577 132.612 5.22921 128.259 5.22921C124.117 5.22921 121.626 5.43155 121.626 14.4369C121.626 22.2591 123.307 23.3267 128.259 23.3267Z" fill="#036EE9"/>
<path d="M140.491 3.72778L146.164 12.9634L151.927 3.72778H153.849L147.305 14.2349L153.699 24.8553H151.777L146.163 15.677L140.581 24.8553H138.659L145.053 14.2349L138.569 3.72778H140.491Z" fill="#036EE9"/>
<path d="M156.051 23.321C156.051 23.0642 156.173 22.9067 156.44 22.9067H157.238C157.544 22.9067 157.668 23.0649 157.668 23.321V24.4813C157.668 24.7573 157.485 24.8551 157.238 24.8551H156.44C156.214 24.8551 156.051 24.6977 156.051 24.4813V23.321Z" fill="#1E2C5B"/>
<path d="M160.432 11.5715C160.432 11.3154 160.576 11.158 160.842 11.158H161.599C161.844 11.158 161.988 11.3353 161.988 11.5715V12.6737C161.988 12.9297 161.824 13.0681 161.599 13.0681H160.842C160.597 13.0681 160.432 12.9113 160.432 12.6737V11.5715ZM160.597 14.4065H161.763V24.8554H160.597V14.4065Z" fill="#1E2C5B"/>
<path d="M168.945 14.3076C172.568 14.3076 173.633 15.7836 173.633 19.7782C173.633 23.6367 172.527 24.9552 168.945 24.9552C165.302 24.9552 164.258 23.5182 164.258 19.7782C164.258 15.5084 165.486 14.3076 168.945 14.3076ZM168.945 23.8332C171.279 23.8332 172.466 23.3998 172.466 19.7782C172.466 15.8623 171.362 15.4297 168.945 15.4297C166.592 15.4297 165.425 15.7446 165.425 19.7782C165.425 23.4991 166.673 23.8332 168.945 23.8332Z" fill="#1E2C5B"/>
<path d="M106.321 5.96416L111.241 8.96472L115.876 6.18269L106.321 0.355225" fill="#1E2C5B"/>
<path d="M101.672 8.96484V14.715L111.397 20.5101L115.892 17.7215L101.672 8.96484Z" fill="#223F6E"/>
<path d="M106.321 23.6811V29.0752L115.876 23.2433V17.7205L106.321 23.6811Z" fill="#1E2C5B"/>
<path d="M115.878 12.3071L101.554 20.7334L106.333 23.6825V29.078L96.774 23.2432V6.29205H96.8589L96.6898 6.19493L106.333 0.360107V5.96757L101.672 8.75475V14.7183L115.878 6.17948V12.3071Z" fill="#036EE9"/>
</svg>
