<svg width="288" height="48" viewBox="0 0 288 48" fill="none" xmlns="http://www.w3.org/2000/svg">
<path d="M2.20508 7.19922H4.99559V23.6764H23.6006V7.19922H26.3911V41.6596H23.6006V26.3128H4.99683V41.6596H2.20508V7.19922Z" fill="white"/>
<path d="M33.8164 13.3193C33.8164 8.70406 36.7542 7.05766 39.984 7.19926L55.1146 7.85686V9.88126H39.9852C37.2434 9.88126 36.6082 11.2937 36.6082 13.3193V23.1569L53.1565 23.5337V25.6061L36.6082 25.9817V35.8685C36.6082 38.9753 38.6149 39.1169 40.4757 39.1169H55.1159V41.0933L40.4757 41.8001C37.2434 41.9405 33.8177 41.1881 33.8177 35.8685V13.3193H33.8164Z" fill="white"/>
<path d="M61.8414 7.19971H64.6307V35.7297C64.6307 38.8365 66.6387 38.9769 68.4995 38.9769H82.9425V41.6601H68.5007C65.2684 41.6601 61.8427 41.0481 61.8427 35.7297L61.8414 7.19971Z" fill="white"/>
<path d="M87.9834 7.19971H102.33C106.198 7.19971 110.899 8.56411 110.899 16.9917C110.899 26.7369 105.953 27.2529 102.33 27.2529C100.372 27.2529 91.0198 26.5953 90.7752 26.4537V41.6601H87.9846L87.9834 7.19971ZM102.33 24.5253C105.317 24.5253 108.107 23.6769 108.059 16.9917C108.01 10.4469 104.73 9.92971 102.33 9.92971H90.7739V24.5253H102.33Z" fill="white"/>
<path d="M117.62 7.19922H120.41V41.6596H117.62V7.19922Z" fill="white"/>
<path d="M127.851 7.19922H130.692L150.619 36.622V7.19922H153.41V41.6596H150.619L130.643 12.2356V41.6596H127.851V7.19922Z" fill="white"/>
<path d="M210.809 5.84619C219.277 5.84619 224.417 7.40019 224.417 23.545C224.417 38.749 219.621 40.7254 210.809 40.7254C201.996 40.7254 197.199 39.2194 197.199 23.545C197.199 7.40019 202.536 5.84619 210.809 5.84619ZM210.809 38.0434C218.69 38.0434 221.627 36.019 221.627 23.545C221.627 9.09339 217.907 8.52819 210.809 8.52819C204.053 8.52819 199.99 8.85819 199.99 23.545C199.99 36.3022 202.732 38.0434 210.809 38.0434Z" fill="white"/>
<path d="M230.757 6.07959L240.009 21.142L249.409 6.07959H252.542L241.87 23.2156L252.298 40.5364H249.163L240.008 25.5676L230.903 40.5364H227.77L238.197 23.2156L227.622 6.07959H230.757Z" fill="white"/>
<path d="M256.135 38.034C256.135 37.6152 256.333 37.3584 256.768 37.3584H258.07C258.569 37.3584 258.772 37.6164 258.772 38.034V39.9264C258.772 40.3764 258.472 40.536 258.07 40.536H256.768C256.4 40.536 256.135 40.2792 256.135 39.9264V38.034Z" fill="white"/>
<path d="M263.279 18.8717C263.279 18.4541 263.514 18.1973 263.948 18.1973H265.183C265.582 18.1973 265.817 18.4865 265.817 18.8717V20.6693C265.817 21.0869 265.55 21.3125 265.183 21.3125H263.948C263.548 21.3125 263.279 21.0569 263.279 20.6693V18.8717ZM263.548 23.4953H265.45V40.5365H263.548V23.4953Z" fill="white"/>
<path d="M277.163 23.334C283.071 23.334 284.809 25.7412 284.809 32.256C284.809 38.5488 283.005 40.6992 277.163 40.6992C271.222 40.6992 269.519 38.3556 269.519 32.256C269.519 25.2924 271.521 23.334 277.163 23.334ZM277.163 38.8692C280.97 38.8692 282.905 38.1624 282.905 32.256C282.905 25.8696 281.105 25.164 277.163 25.164C273.326 25.164 271.423 25.6776 271.423 32.256C271.423 38.3244 273.458 38.8692 277.163 38.8692Z" fill="white"/>
<path d="M175.029 9.7267L183.053 14.6203L190.612 10.0831L175.029 0.579102" fill="#036EE9"/>
<path d="M167.448 14.6196V23.9976L183.307 33.4488L190.638 28.9008L167.448 14.6196Z" fill="#036EE9"/>
<path d="M175.029 38.6211V47.4183L190.612 37.9071V28.8999L175.029 38.6211Z" fill="#036EE9"/>
<path d="M190.615 20.0713L167.255 33.8137L175.049 38.6233V47.4229L159.459 37.9069V10.2613H159.598L159.322 10.1029L175.049 0.586914V9.73212L167.448 14.2777V24.0037L190.615 10.0777V20.0713Z" fill="#036EE9"/>
</svg>
